:SAMPLES-PER-SECOND 30
:FULLY-SPECIFIED
:DEGREES
159
root  12.04682223 39.26822332 0.3643622314 -4.391998291 -34.08399963 5.285995483
lowerback  11.21539974 3.950079918 -5.418690205
upperback  6.305709839 4.595180035 -1.255810022
thorax  0.01035900041 2.145829916 1.212030053
lowerneck  0.7271850109 3.351259947 -7.819169998
upperneck  13.26830006 3.697240114 8.90598011
head  3.474280119 1.818570018 4.110429764
lclavicle  0 -9.442270133e-015 7.951389973e-016
lhumerus  6.043879986 -18.24620056 84.89790344
lradius  2.308848688e-031 -2.671715137e-031 130.8329926
lwrist  -1.412450015e-030 3.089734409e-031 26.78319931
lhand  -1.496451383e-031 -27.76390076 20.11240005
lfingers  90 7.125020027 -90
lthumb  89.89689403 5.08795885 91.16245106
rclavicle  0 -9.442270133e-015 7.951389973e-016
rhumerus  12.66469955 9.588199615 -82.68779755
rradius  -2.097271076e-031 2.840827004e-031 126.4369965
rwrist  7.062250077e-031 3.531125038e-031 -45.55310059
rhand  -7.920061211e-032 -33.2840004 9.303460121
rfingers  -90 -7.125020027 -90
rthumb  -92.93752616 -24.25625642 -97.11982154
rfemur  -20.82900047 10.59029961 0.0492396988
rtibia  -0 0 70.33650208
rfoot  -4.421358326e-032 -3.327039957 1.307340026
rtoes  5.373923086 19.29304026 -105.8922705
lfemur  -29.07069969 -6.985010147 -5.180290222
ltibia  -0 0 51.05599976
lfoot  4.438537571e-032 -6.03895998 -3.518650055
ltoes  -4.250644065 -19.5611806 -102.515957
160
root  12.0106667 39.18977873 0.2589111018 -4.302993774 -32.99499512 5.210006714
lowerback  11.58619976 3.886840105 -5.249790192
upperback  6.290669918 4.502830029 -1.203169942
thorax  -0.1927330047 2.10807991 1.160230041
lowerneck  0.6529769897 3.488280058 -8.066840172
upperneck  13.32660007 3.938800097 8.510780334
head  3.49119997 1.911759973 4.035789967
lclavicle  0 -9.442270133e-015 7.951389973e-016
lhumerus  6.90568018 -17.48380089 84.79029846
lradius  2.315649726e-031 -2.665822647e-031 130.9790039
lwrist  -7.062250077e-031 1.103476575e-031 27.30340004
lhand  -1.496451383e-031 -27.76390076 20.11240005
lfingers  90 7.125020027 -90
lthumb  89.89689403 5.08795885 91.16245106
rclavicle  0 -9.442270133e-015 7.951389973e-016
rhumerus  14.76809978 9.482279778 -81.90519714
rradius  -2.077188098e-031 2.855544369e-031 126.0329971
rwrist  7.062250077e-031 1.765562519e-031 -44.93209839
rhand  -7.920061211e-032 -33.2840004 9.303460121
rfingers  -90 -7.125020027 -90
rthumb  -92.93752616 -24.25625642 -97.11982154
rfemur  -21.60510063 10.89109993 -0.1992699951
rtibia  -0 0 70.23179626
rfoot  -4.709789681e-032 -5.283969879 0.02107780054
rtoes  5.373923086 19.29304026 -105.8922705
lfemur  -29.5095005 -5.834290028 -5.842420101
ltibia  -0 0 53.72990036
lfoot  4.443542721e-032 -6.621059895 -3.334120035
ltoes  -4.250644065 -19.5611806 -102.515957
161
root  11.96971127 39.10133482 0.1804633286 -4.320999146 -31.93699646 5.160995483
lowerback  11.67940044 3.727180004 -5.024950027
upperback  6.453820229 4.31471014 -1.178930044
thorax  -0.04809699953 2.014090061 1.085180044
lowerneck  0.3682030141 3.653199911 -8.128700256
upperneck  13.34570026 4.237420082 8.048689842
head  3.53312993 2.042409897 3.914469957
lclavicle  0 -9.442270133e-015 7.951389973e-016
lhumerus  7.773300171 -16.7112999 84.63880157
lradius  2.323224048e-031 -2.659224334e-031 131.1419983
lwrist  -7.062250077e-031 1.544867204e-031 27.43449974
lhand  -1.496451383e-031 -27.76390076 20.11240005
lfingers  90 7.125020027 -90
lthumb  89.89689403 5.08795885 91.16245106
rclavicle  0 -9.442270133e-015 7.951389973e-016
rhumerus  17.05459976 9.424039841 -81.17839813
rradius  -2.052541243e-031 2.873311415e-031 125.5400009
rwrist  7.062250077e-031 5.296687558e-031 -44.31520081
rhand  -7.920061211e-032 -33.2840004 9.303460121
rfingers  -90 -7.125020027 -90
rthumb  -92.93752616 -24.25625642 -97.11982154
rfemur  -22.16740036 11.22200012 -0.4865249991
rtibia  -0 0 69.88110352
rfoot  -4.450978978e-032 -7.400119781 -1.6329
rtoes  5.373923086 19.29304026 -105.8922705
lfemur  -29.70000076 -4.782249928 -6.509290218
ltibia  -0 0 56.51229858
lfoot  4.448647569e-032 -7.165219784 -3.237620115
ltoes  -4.250644065 -19.5611806 -102.515957
162
root  11.92037778 39.00555588 0.1065875602 -4.264007568 -31.00900269 4.776000977
lowerback  11.95540047 3.535890102 -4.815239906
upperback  6.519249916 4.072410107 -0.9030219913
thorax  -0.1219979972 1.894960046 1.271299958
lowerneck  0.3147960007 3.874109983 -8.466859818
upperneck  13.20829964 4.591219902 7.752399921
head  3.474750042 2.19107008 3.881900072
lclavicle  0 -9.442270133e-015 7.951389973e-016
lhumerus  8.356410027 -15.90540028 84.66829681
lradius  2.333325179e-031 -2.650365569e-031 131.3600006
lwrist  -1.412450015e-030 2.206953149e-032 27.21520042
lhand  -1.496451383e-031 -27.76390076 20.11240005
lfingers  90 7.125020027 -90
lthumb  89.89689403 5.08795885 91.16245106
rclavicle  0 -9.442270133e-015 7.951389973e-016
rhumerus  19.05150032 9.637949944 -80.30860138
rradius  -2.029911003e-031 2.889343412e-031 125.0899963
rwrist  7.062250077e-031 5.296687558e-031 -43.82360077
rhand  -7.920061211e-032 -33.2840004 9.303460121
rfingers  -90 -7.125020027 -90
rthumb  -92.93752616 -24.25625642 -97.11982154
rfemur  -22.57579994 11.78569984 -0.3993990123
rtibia  -0 0 69.22820282
rfoot  -4.47548461e-032 -9.515480042 -3.847800016
rtoes  5.373923086 19.29304026 -105.8922705
lfemur  -29.65699959 -3.79392004 -6.755030155
ltibia  -0 0 59.24269867
lfoot  4.453484791e-032 -7.644330025 -3.124200106
ltoes  -4.250644065 -19.5611806 -102.515957
163
root  11.86588918 38.90155582 0.04226155579 -4.231994629 -30.19200134 4.29800415
lowerback  12.4197998 3.392319918 -4.617690086
upperback  6.486219883 3.879430056 -0.612203002
thorax  -0.4040330052 1.805080056 1.461330056
lowerneck  0.3546499908 4.063220024 -8.798830032
upperneck  13.07369995 4.864610195 7.71833992
head  3.399110079 2.310659885 3.925110102
lclavicle  0 -9.442270133e-015 7.951389973e-016
lhumerus  8.798930168 -15.37959957 84.71459961
lradius  2.345558415e-031 -2.639545369e-031 131.625
lwrist  -7.062250077e-031 8.827812596e-032 26.96069908
lhand  -1.496451383e-031 -27.76390076 20.11240005
lfingers  90 7.125020027 -90
lthumb  89.89689403 5.08795885 91.16245106
rclavicle  0 -9.442270133e-015 7.951389973e-016
rhumerus  20.86580086 9.643340111 -79.62439728
rradius  -2.007764406e-031 2.904776433e-031 124.6520004
rwrist  7.062250077e-031 3.531125038e-031 -43.48080063
rhand  -7.920061211e-032 -33.2840004 9.303460121
rfingers  -90 -7.125020027 -90
rthumb  -92.93752616 -24.25625642 -97.11982154
rfemur  -22.85309982 12.52490044 -0.2269729972
rtibia  -0 0 68.27359772
rfoot  -4.517538292e-032 -12.29609966 -6.245190144
rtoes  5.373923086 19.29304026 -105.8922705
lfemur  -29.33270073 -2.97303009 -6.814310074
ltibia  -0 0 61.71989822
lfoot  6.688143201e-032 -8.134010315 -2.746890068
ltoes  -4.250644065 -19.5611806 -102.515957
164
root  11.80275519 38.79511075 -0.01050195561 -4.179000854 -29.33000183 3.800003052
lowerback  12.93179989 3.276959896 -4.365139961
upperback  6.386869907 3.728620052 -0.3965780139
thorax  -0.7743719816 1.740949988 1.535210013
lowerneck  0.3858279884 4.154329777 -8.734609604
upperneck  12.96590042 5.002419949 7.58261013
head  3.356839895 2.377249956 3.87112999
lclavicle  0 -9.442270133e-015 7.951389973e-016
lhumerus  9.257789612 -15.17090034 84.70639801
lradius  2.354023221e-031 -2.631998996e-031 131.8090057
lwrist  -7.062250077e-031 1.324171889e-031 26.85009956
lhand  -1.496451383e-031 -27.76390076 20.11240005
lfingers  90 7.125020027 -90
lthumb  89.89689403 5.08795885 91.16245106
rclavicle  0 -9.442270133e-015 7.951389973e-016
rhumerus  22.5102005 9.285650253 -79.06040192
rradius  -1.986672243e-031 2.919242613e-031 124.2369995
rwrist  1.412450015e-030 3.531125038e-031 -43.20280075
rhand  -7.920061211e-032 -33.2840004 9.303460121
rfingers  -90 -7.125020027 -90
rthumb  -92.93752616 -24.25625642 -97.11982154
rfemur  -23.0121994 13.23950005 -0.04034560174
rtibia  -0 0 67.05549622
rfoot  -0 -13.99279976 -8.71848011
rtoes  5.373923086 19.29304026 -105.8922705
lfemur  -28.78079987 -2.263279915 -6.78594017
ltibia  -0 0 63.68999863
lfoot  6.689203028e-032 -8.19727993 -2.382659912
ltoes  -4.250644065 -19.5611806 -102.515957
165
root  11.72648903 38.68 -0.05635399753 -4.216995239 -28.43600464 3.430999756
lowerback  12.96949959 3.095920086 -4.139080048
upperback  6.581110001 3.51989007 -0.3088349998
thorax  -0.5717869997 1.634080052 1.533929944
lowerneck  0.4234000146 4.274040222 -8.651379585
upperneck  12.52200031 5.169829845 7.638850212
head  3.204050064 2.471290112 3.864579916
lclavicle  0 -9.442270133e-015 7.951389973e-016
lhumerus  10.18010044 -15.0007 84.38839722
lradius  2.358521236e-031 -2.627969105e-031 131.9069977
lwrist  0 6.620859447e-032 26.87969971
lhand  -1.496451383e-031 -27.76390076 20.11240005
lfingers  90 7.125020027 -90
lthumb  89.89689403 5.08795885 91.16245106
rclavicle  0 -9.442270133e-015 7.951389973e-016
rhumerus  24.51449966 8.798509598 -78.63359833
rradius  -1.964093209e-031 2.934481539e-031 123.7949982
rwrist  0 4.413906298e-031 -43.04190063
rhand  -7.920061211e-032 -33.2840004 9.303460121
rfingers  -90 -7.125020027 -90
rthumb  -92.93752616 -24.25625642 -97.11982154
rfemur  -23.07229996 13.97029972 0.01676660031
rtibia  -0 0 65.64260101
rfoot  -0 -15.43980026 -11.01270008
rtoes  5.373923086 19.29304026 -105.8922705
lfemur  -27.86689949 -1.593289971 -6.832699776
ltibia  -0 0 64.99549866
lfoot  6.68366985e-032 -7.861159801 -1.917479992
ltoes  -4.250644065 -19.5611806 -102.515957
